<svg height="496pt" viewBox="0 0 496 496" width="496pt" xmlns="http://www.w3.org/2000/svg"><path d="m8 8h480v480h-480zm0 0" fill="#d9d7d8"/><path d="m8 8h440v480h-440zm0 0" fill="#efedee"/><path d="m8 8h480v96h-480zm0 0" fill="#5789d6"/><path d="m8 8h440v96h-440zm0 0" fill="#699ce6"/><path d="m200 56c0 8.835938-7.164062 16-16 16s-16-7.164062-16-16 7.164062-16 16-16 16 7.164062 16 16zm0 0" fill="#599072"/><path d="m136 56c0 8.835938-7.164062 16-16 16s-16-7.164062-16-16 7.164062-16 16-16 16 7.164062 16 16zm0 0" fill="#f8cf6a"/><path d="m72 56c0 8.835938-7.164062 16-16 16s-16-7.164062-16-16 7.164062-16 16-16 16 7.164062 16 16zm0 0" fill="#dc6068"/><g fill="#599072"><path d="m40 200h64v64h-64zm0 0"/><path d="m40 296h64v64h-64zm0 0"/><path d="m40 392h64v64h-64zm0 0"/></g><path d="m40 200h40v64h-40zm0 0" fill="#70b48f"/><path d="m40 296h40v64h-40zm0 0" fill="#70b48f"/><path d="m40 392h40v64h-40zm0 0" fill="#70b48f"/><path d="m264 200h64v64h-64zm0 0" fill="#599072"/><path d="m264 296h64v64h-64zm0 0" fill="#599072"/><path d="m264 392h64v64h-64zm0 0" fill="#599072"/><path d="m264 200h40v64h-40zm0 0" fill="#70b48f"/><path d="m264 296h40v64h-40zm0 0" fill="#70b48f"/><path d="m264 392h40v64h-40zm0 0" fill="#70b48f"/><path d="m488 496h-480c-4.425781 0-8-3.574219-8-8v-480c0-4.414062 3.574219-8 8-8h480c4.425781 0 8 3.585938 8 8v480c0 4.425781-3.574219 8-8 8zm-472-16h464v-464h-464zm0 0"/><path d="m56 80c-13.230469 0-24-10.769531-24-24s10.769531-24 24-24 24 10.769531 24 24-10.769531 24-24 24zm0-32c-4.414062 0-8 3.59375-8 8s3.585938 8 8 8 8-3.59375 8-8-3.585938-8-8-8zm0 0"/><path d="m120 80c-13.230469 0-24-10.769531-24-24s10.769531-24 24-24 24 10.769531 24 24-10.769531 24-24 24zm0-32c-4.414062 0-8 3.59375-8 8s3.585938 8 8 8 8-3.59375 8-8-3.585938-8-8-8zm0 0"/><path d="m184 80c-13.230469 0-24-10.769531-24-24s10.769531-24 24-24 24 10.769531 24 24-10.769531 24-24 24zm0-32c-4.414062 0-8 3.59375-8 8s3.585938 8 8 8 8-3.59375 8-8-3.585938-8-8-8zm0 0"/><path d="m8 96h480v16h-480zm0 0"/><path d="m448 48h16v16h-16zm0 0"/><path d="m416 48h16v16h-16zm0 0"/><path d="m384 48h16v16h-16zm0 0"/><path d="m104 272h-64c-4.425781 0-8-3.574219-8-8v-64c0-4.414062 3.574219-8 8-8h64c4.425781 0 8 3.585938 8 8v64c0 4.425781-3.574219 8-8 8zm-56-16h48v-48h-48zm0 0"/><path d="m128 256h112v16h-112zm0 0"/><path d="m328 272h-64c-4.425781 0-8-3.574219-8-8v-64c0-4.414062 3.574219-8 8-8h64c4.425781 0 8 3.585938 8 8v64c0 4.425781-3.574219 8-8 8zm-56-16h48v-48h-48zm0 0"/><path d="m352 256h112v16h-112zm0 0"/><path d="m352 224h112v16h-112zm0 0"/><path d="m128 224h112v16h-112zm0 0"/><path d="m104 368h-64c-4.425781 0-8-3.574219-8-8v-64c0-4.425781 3.574219-8 8-8h64c4.425781 0 8 3.574219 8 8v64c0 4.425781-3.574219 8-8 8zm-56-16h48v-48h-48zm0 0"/><path d="m128 352h112v16h-112zm0 0"/><path d="m328 368h-64c-4.425781 0-8-3.574219-8-8v-64c0-4.425781 3.574219-8 8-8h64c4.425781 0 8 3.574219 8 8v64c0 4.425781-3.574219 8-8 8zm-56-16h48v-48h-48zm0 0"/><path d="m352 352h112v16h-112zm0 0"/><path d="m352 320h112v16h-112zm0 0"/><path d="m128 320h112v16h-112zm0 0"/><path d="m104 464h-64c-4.425781 0-8-3.574219-8-8v-64c0-4.425781 3.574219-8 8-8h64c4.425781 0 8 3.574219 8 8v64c0 4.425781-3.574219 8-8 8zm-56-16h48v-48h-48zm0 0"/><path d="m128 448h112v16h-112zm0 0"/><path d="m328 464h-64c-4.425781 0-8-3.574219-8-8v-64c0-4.425781 3.574219-8 8-8h64c4.425781 0 8 3.574219 8 8v64c0 4.425781-3.574219 8-8 8zm-56-16h48v-48h-48zm0 0"/><path d="m352 448h112v16h-112zm0 0"/><path d="m352 416h112v16h-112zm0 0"/><path d="m128 416h112v16h-112zm0 0"/><path d="m32 160h432v16h-432zm0 0"/><path d="m32 128h432v16h-432zm0 0"/></svg>