<?xml version="1.0" encoding="iso-8859-1"?>
<!-- Generator: Adobe Illustrator 19.0.0, SVG Export Plug-In . SVG Version: 6.00 Build 0)  -->
<svg version="1.1" id="Capa_1" xmlns="http://www.w3.org/2000/svg" xmlns:xlink="http://www.w3.org/1999/xlink" x="0px" y="0px"
	 viewBox="0 0 512 512" style="enable-background:new 0 0 512 512;" xml:space="preserve">
<rect x="31.562" y="63.624" style="fill:#EAECEE;" width="448.877" height="352.689"/>
<rect x="31.562" y="63.624" style="fill:#D5D9DE;" width="448.877" height="56.11"/>
<rect x="7.515" y="63.624" style="fill:#55697A;" width="496.971" height="32.063"/>
<circle style="fill:#76E7EB;" cx="159.812" cy="191.874" r="64.125"/>
<path style="fill:#FD8E61;" d="M385.223,332.148l31.577-31.577c4.696-4.696,4.696-12.308,0-17.004
	c-4.695-4.696-12.309-4.696-17.004,0l-31.577,31.578l-31.577-31.577c-4.695-4.696-12.309-4.696-17.004,0
	c-4.696,4.696-4.696,12.308,0,17.004l31.577,31.577l-31.577,31.577c-4.696,4.696-4.696,12.308,0,17.004
	c2.348,2.348,5.425,3.522,8.502,3.522s6.155-1.173,8.502-3.522l31.577-31.577l31.577,31.577c2.348,2.348,5.425,3.522,8.502,3.522
	s6.155-1.173,8.502-3.522c4.696-4.696,4.696-12.308,0-17.004L385.223,332.148z"/>
<path d="M504.485,56.109H354.22L259.786,1.024c-2.341-1.365-5.233-1.365-7.573,0L157.78,56.109H7.515
	C3.365,56.109,0,59.474,0,63.624v32.063c0,4.15,3.365,7.515,7.515,7.515h16.532v313.112c0,4.15,3.365,7.515,7.515,7.515h216.924
	v73.143h-24.548c-4.15,0-7.515,3.365-7.515,7.515c0,4.15,3.365,7.515,7.515,7.515h64.125c4.151,0,7.515-3.365,7.515-7.515
	c0-4.15-3.364-7.515-7.515-7.515h-24.548v-73.143h216.924c4.151,0,7.515-3.365,7.515-7.515V103.201h16.532
	c4.151,0,7.515-3.365,7.515-7.515V63.624C512,59.474,508.636,56.109,504.485,56.109z M256,16.214l68.392,39.895H187.608L256,16.214z
	 M496.971,88.172h-76.65c-4.151,0-7.515,3.365-7.515,7.515c0,4.15,3.364,7.515,7.515,7.515h52.603v305.597H39.076V103.201h346.51
	c4.151,0,7.515-3.365,7.515-7.515c0-4.15-3.364-7.515-7.515-7.515H15.029V71.139h481.941V88.172z"/>
<path d="M159.812,263.514c39.502,0,71.64-32.138,71.64-71.64s-32.138-71.64-71.64-71.64s-71.64,32.138-71.64,71.64
	S120.31,263.514,159.812,263.514z M159.812,135.264c31.215,0,56.611,25.396,56.611,56.611s-25.396,56.611-56.611,56.611
	s-56.611-25.395-56.611-56.611S128.597,135.264,159.812,135.264z"/>
<path d="M422.113,278.255c-7.531-7.533-20.101-7.533-27.632,0l-26.262,26.262l-26.262-26.262c-7.531-7.533-20.101-7.533-27.632,0
	c-7.618,7.618-7.618,20.013,0,27.631l26.263,26.262l-26.263,26.262c-7.618,7.618-7.618,20.013-0.001,27.63
	c7.53,7.532,20.103,7.533,27.633,0.001l26.262-26.262l26.261,26.261c7.53,7.532,20.103,7.533,27.633,0.001
	c7.618-7.618,7.618-20.013,0-27.631l-26.263-26.262l26.263-26.262C429.731,298.268,429.731,285.873,422.113,278.255z
	 M411.486,295.258l-31.577,31.577c-2.935,2.935-2.935,7.693,0,10.627l31.577,31.577c1.659,1.659,1.745,4.411,0.194,6.17
	c-1.696,1.924-4.756,2.022-6.57,0.206l-31.577-31.577c-2.896-2.895-7.732-2.895-10.628,0l-31.578,31.578
	c-1.814,1.815-4.875,1.715-6.57-0.208c-1.551-1.759-1.464-4.511,0.195-6.169l31.577-31.577c2.935-2.935,2.935-7.693,0-10.627
	l-31.577-31.577c-1.658-1.658-1.746-4.41-0.195-6.169c1.696-1.925,4.756-2.023,6.571-0.207l31.577,31.577
	c2.936,2.935,7.693,2.935,10.628,0l31.577-31.577c1.815-1.815,4.875-1.716,6.571,0.208
	C413.231,290.85,413.144,293.6,411.486,295.258z"/>
<path d="M378.383,155.118c-2.593,3.24-2.067,7.97,1.173,10.563l23.35,18.679h-98.812c-21.823,0-39.577,17.755-39.577,39.577v80.157
	c0,13.535-11.013,24.548-24.548,24.548H95.687c-4.15,0-7.515,3.365-7.515,7.515c0,4.15,3.365,7.515,7.515,7.515h144.282
	c21.823,0,39.577-17.755,39.577-39.577v-80.157c0-13.535,11.012-24.548,24.548-24.548h98.812l-23.351,18.68
	c-2.942,2.354-3.679,6.672-1.67,9.863c2.357,3.743,7.6,4.641,11.06,1.873l40.078-32.063c3.701-2.962,3.701-8.773,0-11.736
	l-40.078-32.063C385.704,151.351,380.976,151.877,378.383,155.118z"/>
<g>
</g>
<g>
</g>
<g>
</g>
<g>
</g>
<g>
</g>
<g>
</g>
<g>
</g>
<g>
</g>
<g>
</g>
<g>
</g>
<g>
</g>
<g>
</g>
<g>
</g>
<g>
</g>
<g>
</g>
</svg>
