<?xml version="1.0" encoding="iso-8859-1"?>
<!-- Generator: Adobe Illustrator 19.0.0, SVG Export Plug-In . SVG Version: 6.00 Build 0)  -->
<svg version="1.1" id="Capa_1" xmlns="http://www.w3.org/2000/svg" xmlns:xlink="http://www.w3.org/1999/xlink" x="0px" y="0px"
	 viewBox="0 0 512 512" style="enable-background:new 0 0 512 512;" xml:space="preserve">
<path style="fill:#8F563B;" d="M481.28,240.64h-10.24V87.04c0-16.968-13.752-30.72-30.72-30.72c-16.968,0-30.72,13.752-30.72,30.72
	v153.6h-10.24c-11.315,0-20.48,9.165-20.48,20.48v20.48h122.88v-20.48C501.76,249.815,492.595,240.64,481.28,240.64z"/>
<path style="fill:#B3E4E8;" d="M266.24,312.32H81.92V281.6c0-33.935,27.505-61.44,61.44-61.44h61.44
	c33.935,0,61.44,27.505,61.44,61.44V312.32z"/>
<path style="fill:#8DC79D;" d="M337.92,414.72H10.24v-61.44c0-22.62,18.34-40.96,40.96-40.96h245.76
	c22.62,0,40.96,18.34,40.96,40.96V414.72z"/>
<g>
	<circle style="fill:#A8A8A8;" cx="81.92" cy="424.96" r="30.72"/>
	<circle style="fill:#A8A8A8;" cx="266.24" cy="424.96" r="30.72"/>
</g>
<g>
	<path style="fill:#787D82;" d="M81.92,465.92c-22.589,0-40.96-18.371-40.96-40.96S59.331,384,81.92,384s40.96,18.371,40.96,40.96
		S104.509,465.92,81.92,465.92z M81.92,404.48c-11.295,0-20.48,9.185-20.48,20.48s9.185,20.48,20.48,20.48s20.48-9.185,20.48-20.48
		S93.215,404.48,81.92,404.48z"/>
	<path style="fill:#787D82;" d="M266.168,465.92c-5.519,0-11.131-1.116-16.497-3.492c-10.015-4.444-17.695-12.503-21.627-22.702
		c-3.953-10.199-3.676-21.33,0.748-31.345c4.424-10.004,12.483-17.695,22.682-21.627c10.209-3.973,21.35-3.676,31.345,0.748
		c10.015,4.424,17.695,12.483,21.627,22.682c3.953,10.209,3.676,21.34-0.747,31.345C296.94,456.817,281.897,465.92,266.168,465.92z
		 M266.24,404.47c-2.488,0-4.987,0.461-7.383,1.393c-5.1,1.966-9.134,5.816-11.336,10.824c-0.01,0-0.01,0-0.01,0.01
		c-2.212,4.987-2.345,10.557-0.369,15.657s5.806,9.134,10.824,11.346c10.342,4.547,22.436-0.133,27.013-10.455
		c2.212-5.007,2.345-10.568,0.369-15.667c-1.966-5.11-5.806-9.134-10.813-11.346C271.872,405.064,269.056,404.47,266.24,404.47z
		 M238.152,412.539h0.102H238.152z"/>
</g>
<rect x="430.08" y="87.04" style="fill:#5B3726;" width="20.48" height="20.48"/>
<rect x="201.605" y="312.32" style="fill:#DC4D41;" width="284.795" height="102.4"/>
<path style="fill:#C7463B;" d="M296.96,312.32h-95.355v102.4H337.92v-61.44C337.92,330.66,319.58,312.32,296.96,312.32z"/>
<polygon style="fill:#F9E0A0;" points="378.88,312.32 460.8,414.72 501.76,414.72 501.76,281.6 378.88,281.6 "/>
<g>
	<path style="fill:#F4CA62;" d="M460.8,424.96c-5.663,0-10.24-4.577-10.24-10.24v-51.2c0-5.663,4.577-10.24,10.24-10.24
		c5.663,0,10.24,4.577,10.24,10.24v51.2C471.04,420.383,466.463,424.96,460.8,424.96z"/>
	<path style="fill:#F4CA62;" d="M419.84,373.76c-5.663,0-10.24-4.577-10.24-10.24v-40.96c0-5.663,4.577-10.24,10.24-10.24
		c5.663,0,10.24,4.577,10.24,10.24v40.96C430.08,369.183,425.503,373.76,419.84,373.76z"/>
</g>
<rect x="409.6" y="211.251" style="fill:#744630;" width="61.44" height="29.43"/>
<path d="M204.8,209.92h-61.44c-39.516,0-71.68,32.164-71.68,71.68v20.48H51.2c-28.232,0-51.2,22.968-51.2,51.2v61.44
	c0,5.663,4.577,10.24,10.24,10.24h30.72c0,22.589,18.371,40.96,40.96,40.96s40.96-18.371,40.96-40.96h78.715h23.747
	c0,4.987,0.84,9.984,2.693,14.766c3.942,10.199,11.622,18.258,21.627,22.702c5.376,2.376,10.988,3.492,16.507,3.492
	c15.729,0,30.771-9.103,37.519-24.392c2.355-5.304,3.451-10.936,3.441-16.568h30.792H460.8h40.96c5.663,0,10.24-4.577,10.24-10.24
	V281.6v-20.48c0-16.937-13.783-30.72-30.72-30.72V87.04c0-22.589-18.371-40.96-40.96-40.96c-22.589,0-40.96,18.371-40.96,40.96
	V230.4c-16.937,0-30.72,13.783-30.72,30.72v20.48v20.48h-71.68h-20.48V281.6C276.48,242.084,244.316,209.92,204.8,209.92z
	 M92.16,281.6c0-28.232,22.968-51.2,51.2-51.2h61.44c28.232,0,51.2,22.968,51.2,51.2v20.48h-54.405H92.16V281.6z M81.92,445.44
	c-11.295,0-20.48-9.185-20.48-20.48h40.96C102.4,436.255,93.215,445.44,81.92,445.44z M117.187,404.48
	C110.08,392.294,97.014,384,81.92,384s-28.16,8.294-35.267,20.48H20.48v-51.2c0-16.937,13.783-30.72,30.72-30.72h30.72h109.435
	v81.92H117.187z M284.969,433.254c-4.567,10.322-16.671,15.002-27.013,10.455c-5.007-2.222-8.847-6.246-10.824-11.346
	c-0.922-2.396-1.341-4.895-1.341-7.393h40.888C286.689,427.776,286.147,430.592,284.969,433.254z M266.138,404.48
	c0.041,0,0.072-0.01,0.102-0.01s0.061,0.01,0.092,0.01H266.138z M373.955,322.56l65.536,81.92H348.16v-51.2
	c0-11.571-4.004-22.139-10.506-30.72H373.955z M471.04,404.48v-40.96c0-5.663-4.577-10.24-10.24-10.24
	c-5.663,0-10.24,4.577-10.24,10.24v22.006l-20.48-25.6V322.56c0-5.663-4.577-10.24-10.24-10.24c-5.663,0-10.24,4.577-10.24,10.24
	v11.766l-20.48-25.6V291.84h102.4v112.64H471.04z M419.84,87.04c0-11.295,9.185-20.48,20.48-20.48c11.295,0,20.48,9.185,20.48,20.48
	V230.4h-40.96V87.04z M389.12,261.12c0-5.652,4.588-10.24,10.24-10.24h10.24h61.44h10.24c5.652,0,10.24,4.588,10.24,10.24v10.24
	h-102.4V261.12z M327.68,353.28v51.2h-26.112c-4.301-7.455-10.721-13.425-18.76-16.968c-9.994-4.434-21.125-4.721-31.345-0.748
	c-8.786,3.389-15.821,9.687-20.47,17.715h-19.159v-81.92h54.405h30.72C313.897,322.56,327.68,336.343,327.68,353.28z"/>
<rect x="430.08" y="87.04" width="20.48" height="20.48"/>
<g>
</g>
<g>
</g>
<g>
</g>
<g>
</g>
<g>
</g>
<g>
</g>
<g>
</g>
<g>
</g>
<g>
</g>
<g>
</g>
<g>
</g>
<g>
</g>
<g>
</g>
<g>
</g>
<g>
</g>
</svg>
