<svg height='100px' width='100px'  fill="#ffffff" xmlns="http://www.w3.org/2000/svg" xmlns:xlink="http://www.w3.org/1999/xlink" version="1.1" x="0px" y="0px" viewBox="0 0 64 64" style="enable-background:new 0 0 64 64;" xml:space="preserve"><path d="M29,17c0-4.411-3.589-8-8-8s-8,3.589-8,8s3.589,8,8,8S29,21.411,29,17z M22.107,22.893c0.454-2.422,2.365-4.333,4.787-4.787  C26.439,20.529,24.529,22.439,22.107,22.893z M21,20.136c-0.73-1.317-1.819-2.406-3.136-3.136c1.317-0.73,2.406-1.819,3.136-3.136  c0.73,1.317,1.819,2.406,3.136,3.136C22.819,17.73,21.73,18.819,21,20.136z M26.893,15.893c-2.422-0.454-4.333-2.365-4.787-4.787  C24.529,11.561,26.439,13.471,26.893,15.893z M19.893,11.107c-0.454,2.422-2.365,4.333-4.787,4.787  C15.561,13.471,17.471,11.561,19.893,11.107z M15.107,18.107c2.422,0.454,4.333,2.365,4.787,4.787  C17.471,22.439,15.561,20.529,15.107,18.107z"></path><path d="M43,9c-4.411,0-8,3.589-8,8s3.589,8,8,8s8-3.589,8-8S47.411,9,43,9z M48.893,15.893c-2.422-0.454-4.333-2.365-4.787-4.787  C46.529,11.561,48.439,13.471,48.893,15.893z M46.136,17c-1.317,0.73-2.406,1.819-3.136,3.136c-0.73-1.317-1.819-2.406-3.136-3.136  c1.317-0.73,2.406-1.819,3.136-3.136C43.73,15.181,44.819,16.27,46.136,17z M41.893,11.107c-0.454,2.422-2.365,4.333-4.787,4.787  C37.561,13.471,39.471,11.561,41.893,11.107z M37.107,18.107c2.422,0.454,4.333,2.365,4.787,4.787  C39.471,22.439,37.561,20.529,37.107,18.107z M44.107,22.893c0.454-2.422,2.365-4.333,4.787-4.787  C48.439,20.529,46.529,22.439,44.107,22.893z"></path><path d="M58,12.101V11c0-4.963-4.037-9-9-9H15c-4.963,0-9,4.037-9,9v1.101C3.721,12.566,2,14.586,2,17v14  c0,2.414,1.721,4.434,4,4.899V37c0,4.963,4.037,9,9,9h23.7c-0.445,1.253-0.7,2.596-0.7,4c0,6.617,5.383,12,12,12s12-5.383,12-12  c0-3.876-1.855-7.318-4.714-9.513C57.748,39.387,58,38.2,58,37v-1.101c2.279-0.465,4-2.484,4-4.899V17  C62,14.586,60.279,12.566,58,12.101z M4,31V17c0-1.304,0.836-2.416,2-2.829v19.658C4.836,33.416,4,32.304,4,31z M60,50  c0,5.514-4.486,10-10,10s-10-4.486-10-10c0-1.643,0.406-3.19,1.111-4.559c0.208-0.404,0.441-0.789,0.695-1.156  c0.025-0.036,0.053-0.07,0.079-0.105c0.213-0.298,0.443-0.578,0.684-0.848c0.074-0.083,0.148-0.167,0.225-0.247  c0.267-0.28,0.547-0.547,0.842-0.792c0.079-0.065,0.165-0.122,0.246-0.186c0.233-0.182,0.473-0.353,0.721-0.513  c0.13-0.084,0.264-0.164,0.398-0.242c0.239-0.138,0.484-0.266,0.734-0.384c0.11-0.052,0.217-0.11,0.329-0.159  c0.354-0.152,0.718-0.281,1.089-0.391c0.113-0.034,0.228-0.059,0.342-0.088c0.295-0.076,0.593-0.14,0.896-0.189  c0.12-0.02,0.24-0.04,0.361-0.055C49.164,40.035,49.579,40,50,40c0.438,0,0.871,0.038,1.301,0.095c0.11,0.014,0.22,0.032,0.329,0.05  c0.377,0.062,0.751,0.143,1.117,0.248c0.05,0.014,0.101,0.024,0.151,0.039c0.413,0.125,0.815,0.282,1.209,0.461  c0.085,0.038,0.168,0.081,0.251,0.121c0.355,0.173,0.702,0.364,1.037,0.58C58.16,43.374,60,46.474,60,50z M54.415,38.852  c-0.132-0.052-0.265-0.099-0.399-0.146c-0.291-0.104-0.586-0.196-0.887-0.278c-0.144-0.039-0.288-0.078-0.434-0.112  c-0.31-0.071-0.625-0.127-0.944-0.174c-0.132-0.019-0.262-0.045-0.394-0.06C50.911,38.032,50.46,38,50,38  c-0.488,0-0.967,0.038-1.441,0.095c-0.149,0.018-0.295,0.044-0.443,0.068c-0.329,0.052-0.652,0.116-0.972,0.195  c-0.161,0.039-0.322,0.078-0.48,0.124c-0.336,0.097-0.664,0.212-0.987,0.337c-0.138,0.053-0.277,0.101-0.412,0.159  c-0.374,0.161-0.737,0.343-1.09,0.54c-0.175,0.097-0.343,0.206-0.513,0.312c-0.222,0.139-0.44,0.284-0.652,0.437  c-0.165,0.119-0.329,0.237-0.488,0.365c-0.266,0.213-0.521,0.439-0.768,0.674c-0.099,0.094-0.201,0.184-0.297,0.282  c-0.305,0.31-0.589,0.639-0.859,0.98c-0.073,0.093-0.142,0.189-0.213,0.284c-0.25,0.336-0.483,0.684-0.698,1.045  c-0.022,0.037-0.049,0.068-0.07,0.105H15c-3.859,0-7-3.141-7-7v-2V13v-2c0-3.859,3.141-7,7-7h34c3.859,0,7,3.141,7,7v2v22v2  c0,0.813-0.143,1.621-0.417,2.381c-0.062-0.033-0.128-0.055-0.19-0.086C55.074,39.134,54.749,38.985,54.415,38.852z M60,31  c0,1.304-0.836,2.416-2,2.829V14.171c1.164,0.413,2,1.525,2,2.829V31z"></path><path d="M42,30H22c-0.553,0-1,0.447-1,1v6c0,0.553,0.447,1,1,1h20c0.553,0,1-0.447,1-1v-6C43,30.447,42.553,30,42,30z M41,36H23v-4  h18V36z"></path><path d="M47,53.586l-3.293-3.293l-1.414,1.414l4,4C46.488,55.902,46.744,56,47,56s0.512-0.098,0.707-0.293l9-9l-1.414-1.414  L47,53.586z"></path></svg>