<svg height='100px' width='100px'  fill="#ffffff" xmlns="http://www.w3.org/2000/svg" data-name="Layer 1" viewBox="0 0 128 128" x="0px" y="0px"><title>expandlines</title><path d="M18.00391,36a17.90992,17.90992,0,0,0,11.23364-3.95648l7.95361,7.9621A36.32481,36.32481,0,0,1,40.02075,37.178l-7.95642-7.9649A17.98893,17.98893,0,1,0,18.00391,36Zm0-32A14,14,0,1,1,4,18,14.018,14.018,0,0,1,18.00391,4Z"></path><path d="M109.99609,92a17.91,17.91,0,0,0-11.234,3.95691l-7.95361-7.9621A36.304,36.304,0,0,1,87.97925,90.822l7.95654,7.965A17.98882,17.98882,0,1,0,109.99609,92Zm0,32A14,14,0,1,1,124,110,14.018,14.018,0,0,1,109.99609,124Z"></path><path d="M109.99609,100a7.77367,7.77367,0,0,0-8,7.50586,7.3343,7.3343,0,0,0,1.31934,4.127l5.01953,7.48145A2.00061,2.00061,0,0,0,109.99609,120h.002a1.998,1.998,0,0,0,1.66113-.88965c3.85352-5.76953,4.6533-6.9668,4.8291-7.23242a8.36134,8.36134,0,0,0,1.36816-3.0625,6.369,6.369,0,0,0,.13965-1.30957A7.77367,7.77367,0,0,0,109.99609,100Zm3.94629,7.99219-.001.00391a4.53455,4.53455,0,0,1-.76074,1.63379c-.04883.07324-1.80371,2.70215-3.18848,4.77441l-3.35449-5a3.41,3.41,0,0,1-.6416-1.89844,4.03482,4.03482,0,0,1,8,0A2.40566,2.40566,0,0,1,113.94238,107.99219Z"></path><path d="M90.80884,40.00562l7.95361-7.9621a18.05279,18.05279,0,1,0-2.82678-2.83044L87.97925,37.178A36.32481,36.32481,0,0,1,90.80884,40.00562ZM109.99609,4A14,14,0,1,1,95.99121,18,14.01781,14.01781,0,0,1,109.99609,4Z"></path><path d="M64,32A32,32,0,1,0,96,64,32,32,0,0,0,64,32Zm2,59.92065V66h3v1.77637a1.99929,1.99929,0,0,0,1.07422,1.77246l4.606,2.406a6.01419,6.01419,0,1,0,1.97552-3.48053L73,66.56445V61.89453l3.84772-2.20709a6.01638,6.01638,0,1,0-2.12073-3.395L70.00488,59.001A2.00115,2.00115,0,0,0,69,60.73584V62H59.583V60.73584A2.00115,2.00115,0,0,0,58.57813,59.001L53.856,56.29248a6.01547,6.01547,0,1,0-2.12073,3.395L55.583,61.89453v4.66992L51.92725,68.4743a6.05651,6.05651,0,1,0,1.97552,3.48053l4.606-2.406A1.99929,1.99929,0,0,0,59.583,67.77637V66H62V91.92065a28,28,0,1,1,4,0ZM80.583,71a2,2,0,1,1-2,2A2.00261,2.00261,0,0,1,80.583,71Zm-2-16a2,2,0,1,1,2,2A2.00229,2.00229,0,0,1,78.583,55ZM48,57a2,2,0,1,1,2-2A2.00229,2.00229,0,0,1,48,57Zm2,16a2,2,0,1,1-2-2A2.00261,2.00261,0,0,1,50,73Z"></path><path d="M19.59473,23.2041a3.86527,3.86527,0,0,1-2.97656-.11865,3.13431,3.13431,0,0,1-1.73047-1.71436,1.99969,1.99969,0,1,0-3.76758,1.3418,7.03676,7.03676,0,0,0,3.87012,4.02637c.13477.06.27338.10522.41016.15765V28a2,2,0,0,0,4,0v-.638a7.25718,7.25718,0,0,0,1.71973-.46014,5.06646,5.06646,0,0,0,3.2168-6.23779c-.94531-2.8418-3.64551-3.58447-5.61719-4.127-1.27637-.35107-2.48242-.68262-2.91895-1.37842a1.30139,1.30139,0,0,1-.04883-1.38428,2.58813,2.58813,0,0,1,2.04169-.8288,1.07134,1.07134,0,0,0,.42755-.00073,5.17444,5.17444,0,0,1,.70752.07172A2.93435,2.93435,0,0,1,21.084,14.80225a1.99967,1.99967,0,1,0,3.83984-1.11816,6.87872,6.87872,0,0,0-4.91992-4.5097V8a2,2,0,0,0-4,0V9.18689a5.84251,5.84251,0,0,0-3.56445,2.34534,5.268,5.268,0,0,0-.02637,5.75293c1.2627,2.01367,3.47168,2.62109,5.24609,3.10889,1.77539.48828,2.63867.79883,2.87988,1.5249C20.751,22.56543,19.92871,23.06641,19.59473,23.2041Z"></path><path d="M115.99609,26a2.0001,2.0001,0,0,0,2-2V12a2,2,0,0,0-4,0V24A2.0001,2.0001,0,0,0,115.99609,26Z"></path><path d="M109.99609,26a2.0001,2.0001,0,0,0,2-2V16a2,2,0,0,0-4,0v8A2.0001,2.0001,0,0,0,109.99609,26Z"></path><path d="M103.99609,26a2.0001,2.0001,0,0,0,2-2V20a2,2,0,0,0-4,0v4A2.0001,2.0001,0,0,0,103.99609,26Z"></path><path d="M37.19153,87.99481l-7.95361,7.9621A18.0534,18.0534,0,1,0,32.06421,98.787l7.95654-7.965A36.304,36.304,0,0,1,37.19153,87.99481ZM11.00391,122.10687v-4.29047c0-1.8291,1.87012-2.81641,3.62891-2.81641H21.376c1.75879,0,3.62793.9873,3.62793,2.81641v4.29089a13.88947,13.88947,0,0,1-14-.00043Zm7-12.11273a2.99707,2.99707,0,1,1,2.998-2.99707A3.00078,3.00078,0,0,1,18.00391,109.99414Zm11,8.64282v-.82056c0-3.4455-2.5296-5.76935-5.47784-6.537a6.9974,6.9974,0,1,0-11.04364.00006c-2.94843.76764-5.47852,3.09149-5.47852,6.53693v.81934a14.00444,14.00444,0,1,1,22,.00122Z"></path></svg>