<svg xmlns="http://www.w3.org/2000/svg" viewBox="0 0 1385.22 1023.79"><path d="M172.57,349.8,448.78,249.27A66.8,66.8,0,0,1,534.4,289.2h0a66.8,66.8,0,0,1-39.92,85.62L218.27,475.36a66.82,66.82,0,0,1-85.63-39.93h0A66.81,66.81,0,0,1,172.57,349.8Z" transform="translate(60.93 180.96)" style="fill:#5a5b5b;fill-rule:evenodd"/><path d="M267.88,713.23,544.09,612.69a66.81,66.81,0,0,1,85.62,39.93h0a66.81,66.81,0,0,1-39.93,85.63L313.57,838.78A66.8,66.8,0,0,1,228,798.85h0A66.8,66.8,0,0,1,267.88,713.23Z" transform="translate(60.93 180.96)" style="fill:#5a5b5b;fill-rule:evenodd"/><path d="M927.07,274.24l276.21-100.53a66.81,66.81,0,0,1,85.63,39.93h0A66.8,66.8,0,0,1,1249,299.26L972.77,399.79a66.8,66.8,0,0,1-85.62-39.92h0A66.81,66.81,0,0,1,927.07,274.24Z" transform="translate(60.93 180.96)" style="fill:#5a5b5b;fill-rule:evenodd"/><path d="M424.87,457,738.75,342.79a66.8,66.8,0,0,1,85.62,39.93h0a66.8,66.8,0,0,1-39.93,85.62L470.57,582.58a66.81,66.81,0,0,1-85.63-39.93h0A66.8,66.8,0,0,1,424.87,457Z" transform="translate(60.93 180.96)" style="fill:#eacdd0;fill-rule:evenodd"/><path d="M111,571.27l125.55-45.69a66.81,66.81,0,0,1,85.63,39.92h0a66.81,66.81,0,0,1-39.93,85.63L156.69,696.82A66.8,66.8,0,0,1,71.07,656.9h0A66.81,66.81,0,0,1,111,571.27Z" transform="translate(60.93 180.96)" style="fill:#a3a6a3;fill-rule:evenodd"/><path d="M402.38,67.1l406.79-148A66.8,66.8,0,0,1,894.79-41h0A66.81,66.81,0,0,1,854.86,44.6L448.08,192.65a66.79,66.79,0,0,1-85.62-39.92h0A66.81,66.81,0,0,1,402.38,67.1Z" transform="translate(60.93 180.96)" style="fill:#a3a6a3;fill-rule:evenodd"/><path d="M732.41,544.15l502.21-182.79a66.8,66.8,0,0,1,85.62,39.93h0a66.8,66.8,0,0,1-39.93,85.62L778.11,669.7a66.8,66.8,0,0,1-85.62-39.93h0A66.8,66.8,0,0,1,732.41,544.15Z" transform="translate(60.93 180.96)" style="fill:#878384;fill-rule:evenodd"/><path d="M-17,219.73l231-84.08a66.8,66.8,0,0,1,85.62,39.93h0a66.8,66.8,0,0,1-39.93,85.62l-231,84.08a66.8,66.8,0,0,1-85.62-39.93h0A66.8,66.8,0,0,1-17,219.73Z" transform="translate(60.93 180.96)" style="fill:#878384;fill-rule:evenodd"/><path d="M997.49-149.5l75.33-27.42A66.81,66.81,0,0,1,1158.45-137h0a66.8,66.8,0,0,1-39.93,85.62l-75.33,27.42a66.8,66.8,0,0,1-85.62-39.93h0A66.8,66.8,0,0,1,997.49-149.5Z" transform="translate(60.93 180.96)" style="fill:#eacdd0;fill-rule:evenodd"/><path d="M594.61,244.54,615.28,237a3.33,3.33,0,0,1,2.66.12,3.46,3.46,0,0,1,1.76,1.94,3.37,3.37,0,0,1-2.05,4.45L597,251a3.48,3.48,0,0,1-2.67-.16,3.44,3.44,0,0,1-1.78-2,3.06,3.06,0,0,1,.14-2.58,3.3,3.3,0,0,1,1.94-1.76Zm4.87-15.31a3.38,3.38,0,0,1,2.88.09,3.71,3.71,0,0,1,1.89,2.15l15.44,42.44a7.1,7.1,0,0,0,1.77,3,3.54,3.54,0,0,0,2.15.84,5.69,5.69,0,0,0,2.13-.32,3.9,3.9,0,0,0,1.42-.86,4.06,4.06,0,0,1,1.42-.89,2.37,2.37,0,0,1,1.94.26,3.25,3.25,0,0,1,1.54,1.89,3.3,3.3,0,0,1-.89,3.34,8.41,8.41,0,0,1-3.72,2.6c-1,.36-2.05.67-3.1.93a9.75,9.75,0,0,1-4,.14,7.92,7.92,0,0,1-4.09-2.12,14.62,14.62,0,0,1-3.47-5.84l-15.54-42.69a3.62,3.62,0,0,1,.14-2.9,3.78,3.78,0,0,1,2.09-2Z" transform="translate(60.93 180.96)" style="fill:#ff9aa2"/><path d="M644.89,225.16a16.2,16.2,0,0,1,10.1-.84,14.43,14.43,0,0,1,7.26,4.93,29.48,29.48,0,0,1,4.82,8.73l8.78,24.11a3.85,3.85,0,0,1-.09,2.87,3.72,3.72,0,0,1-2.13,2,3.74,3.74,0,0,1-4.81-2.28l-8.75-24a18.49,18.49,0,0,0-3.16-5.65,9.52,9.52,0,0,0-4.76-3.16,11,11,0,0,0-6.72.6,14.43,14.43,0,0,0-6,4,14,14,0,0,0-3.17,6,11.36,11.36,0,0,0,.42,6.65l8.78,24.1a3.93,3.93,0,0,1-.09,2.88,3.75,3.75,0,0,1-5,1.83,3.74,3.74,0,0,1-1.91-2.15l-21.12-58a3.69,3.69,0,0,1,.1-2.88,3.62,3.62,0,0,1,2.14-1.92,3.53,3.53,0,0,1,2.88.09,3.67,3.67,0,0,1,1.89,2.16l9.6,26.36-1,2.6a14,14,0,0,1,.25-5.32,18.72,18.72,0,0,1,2.25-5.54,20.48,20.48,0,0,1,4-4.79A16.81,16.81,0,0,1,644.89,225.16Z" transform="translate(60.93 180.96)" style="fill:#ff9aa2"/><path d="M719.54,224.38A26.06,26.06,0,0,1,721,237.67a24.32,24.32,0,0,1-28.24,19.83A23.81,23.81,0,0,1,681.49,252a27.69,27.69,0,0,1-8.88-24.4,24.1,24.1,0,0,1,5.1-11.45,23.6,23.6,0,0,1,10.44-7.26,23.3,23.3,0,0,1,23.92,4.23A26,26,0,0,1,719.54,224.38Zm-7,2.55a19.9,19.9,0,0,0-5.32-8.21,16.32,16.32,0,0,0-7.82-4,15.68,15.68,0,0,0-8.84.71,16,16,0,0,0-7.21,5.13,16.46,16.46,0,0,0-3.45,8.1,20.06,20.06,0,0,0,1.18,9.73,19.54,19.54,0,0,0,5.31,8.1,17,17,0,0,0,7.88,4.07,16,16,0,0,0,8.83-.68,15.75,15.75,0,0,0,7.22-5.16,17,17,0,0,0,3.39-8.17A19.61,19.61,0,0,0,712.5,226.93Z" transform="translate(60.93 180.96)" style="fill:#ff9aa2"/><path d="M738,191.29a14.71,14.71,0,0,1,19,6.24l-1.33.48.05-1.81a14.84,14.84,0,0,1,1.85-6.08,25,25,0,0,1,4.53-5.91,17.83,17.83,0,0,1,6.39-4,16,16,0,0,1,10-.81,14.52,14.52,0,0,1,7.23,4.93,29.94,29.94,0,0,1,4.86,8.84l8.74,24a3.88,3.88,0,0,1-.09,2.88,3.79,3.79,0,0,1-5,1.82,3.9,3.9,0,0,1-1.87-2.16l-8.67-23.83a19.83,19.83,0,0,0-3.27-5.83,9.73,9.73,0,0,0-4.86-3.21,10.85,10.85,0,0,0-6.7.59,14.63,14.63,0,0,0-6,4,13.71,13.71,0,0,0-3.14,6.13,12.19,12.19,0,0,0,.5,6.84l8.67,23.83a3.8,3.8,0,0,1,0,2.85,3.54,3.54,0,0,1-2.13,2,3.44,3.44,0,0,1-2.89-.14,3.7,3.7,0,0,1-1.94-2.13l-8.75-24a20.09,20.09,0,0,0-3.09-5.68,9.32,9.32,0,0,0-4.71-3.17,10.62,10.62,0,0,0-6.65.57,13.85,13.85,0,0,0-5.83,4,14,14,0,0,0-3.2,6,11.24,11.24,0,0,0,.43,6.64l8.77,24.11a3.85,3.85,0,0,1-.09,2.87,3.72,3.72,0,0,1-2.13,2,3.68,3.68,0,0,1-2.89-.14,3.75,3.75,0,0,1-1.92-2.14l-14-38.35a3.66,3.66,0,0,1,2.25-4.77,3.5,3.5,0,0,1,2.87.09,3.66,3.66,0,0,1,1.9,2.16l2.46,6.75-1.17,2.82a12.37,12.37,0,0,1,.15-5.21,20.41,20.41,0,0,1,6.08-10.48,16.73,16.73,0,0,1,5.55-3.44Z" transform="translate(60.93 180.96)" style="fill:#ff9aa2"/><path d="M828.85,158.51a3.5,3.5,0,0,1,2.87.09,3.72,3.72,0,0,1,1.9,2.16l14.11,38.77a3.93,3.93,0,0,1-.09,2.88,3.76,3.76,0,0,1-2.13,2,3.73,3.73,0,0,1-4.81-2.28l-3.05-8.36,1.6-.78a9.21,9.21,0,0,1,.23,4.69,17.79,17.79,0,0,1-2.07,5.59,21,21,0,0,1-4.17,5.18,18.18,18.18,0,0,1-6.21,3.71,20.41,20.41,0,0,1-11.9.81,23.05,23.05,0,0,1-10.63-5.74A28.64,28.64,0,0,1,797.32,196a27.74,27.74,0,0,1-1.61-13.26,22.59,22.59,0,0,1,4.5-11.08,20.21,20.21,0,0,1,9.49-6.9,21.22,21.22,0,0,1,7.48-1.33,20.55,20.55,0,0,1,6.89,1.28,17.27,17.27,0,0,1,5.41,3.29,11.91,11.91,0,0,1,3.16,4.54l-2.48.3-3.47-9.54a3.65,3.65,0,0,1,2.23-4.79Zm-3.49,46.77a14.47,14.47,0,0,0,7-5.12,17,17,0,0,0,3-8.13,22.29,22.29,0,0,0-6.4-17.58,16.44,16.44,0,0,0-7.54-4.22,14.74,14.74,0,0,0-8.59.6,14.49,14.49,0,0,0-6.88,5,15.86,15.86,0,0,0-3.13,8,22.63,22.63,0,0,0,6.4,17.58,16.72,16.72,0,0,0,7.58,4.27,14.16,14.16,0,0,0,8.59-.32Z" transform="translate(60.93 180.96)" style="fill:#ff9aa2"/><path d="M851.88,193.92a4,4,0,0,1-1.61-2.25,3.56,3.56,0,0,1,2.56-4.06,3.27,3.27,0,0,1,2.54.35,21.41,21.41,0,0,0,7.31,2.57,17.19,17.19,0,0,0,8.36-1.11,19.07,19.07,0,0,0,4-2.23,8.12,8.12,0,0,0,2.78-3.46,6,6,0,0,0,0-4.6,5.34,5.34,0,0,0-2.93-3.37,12,12,0,0,0-4.78-1.1,48.34,48.34,0,0,0-5.77.25c-2.11.2-4.24.29-6.37.3a24.29,24.29,0,0,1-5.94-.68,12.89,12.89,0,0,1-5-2.56,11.54,11.54,0,0,1-3.45-5.18,11.75,11.75,0,0,1-.33-7.61,14.74,14.74,0,0,1,4.17-6.61,21,21,0,0,1,7.38-4.48,26.68,26.68,0,0,1,5.36-1.29,21,21,0,0,1,5.93,0,15.54,15.54,0,0,1,5.82,2.09,3.82,3.82,0,0,1,1.68,1.89,2.94,2.94,0,0,1-.27,2.77,3.39,3.39,0,0,1-1.93,1.41,3.21,3.21,0,0,1-2.3-.15,13.39,13.39,0,0,0-5.87-1.51,16.89,16.89,0,0,0-6.56,1,14.18,14.18,0,0,0-3.89,2.13,7.8,7.8,0,0,0-2.64,3.29,6,6,0,0,0,.1,4.49,5.83,5.83,0,0,0,3,3.29,11,11,0,0,0,5,1c1.91,0,4-.07,6.28-.24s4-.33,6-.33a19.36,19.36,0,0,1,5.61.8,11.24,11.24,0,0,1,4.73,2.6,13.19,13.19,0,0,1,3.36,5.4,11.73,11.73,0,0,1,.26,7.82,15.25,15.25,0,0,1-4.37,6.67,22.26,22.26,0,0,1-7.5,4.47,27.41,27.41,0,0,1-10.19,1.63,20.48,20.48,0,0,1-10.41-3.52Z" transform="translate(60.93 180.96)" style="fill:#ff9aa2"/><path d="M916.38,178.61a3.62,3.62,0,0,1-2.9-.14,3.71,3.71,0,0,1-1.91-2.15L897.6,138a3.69,3.69,0,0,1,.11-2.86,3.64,3.64,0,0,1,2.14-1.91,3.5,3.5,0,0,1,2.87.09,3.72,3.72,0,0,1,1.9,2.16l4.22,11.6-1.72-1.45a20.87,20.87,0,0,1-.06-6,19.64,19.64,0,0,1,1.78-5.9,17,17,0,0,1,3.65-5,16.05,16.05,0,0,1,5.55-3.36,7.65,7.65,0,0,1,3.91-.37,3,3,0,0,1,2.52,1.93,3.79,3.79,0,0,1,0,3.06,3.43,3.43,0,0,1-1.88,1.71,5.46,5.46,0,0,1-2.37.29,6.75,6.75,0,0,0-2.81.48,9.76,9.76,0,0,0-3.94,2.77,15.25,15.25,0,0,0-2.71,4.83,19.27,19.27,0,0,0-1.06,6.07,16.46,16.46,0,0,0,1,6.33l7.78,21.37a3.74,3.74,0,0,1-.11,2.88,3.46,3.46,0,0,1-2.07,2Z" transform="translate(60.93 180.96)" style="fill:#ff9aa2"/><path d="M975.56,131.19A26.29,26.29,0,0,1,977,144.48a24.35,24.35,0,0,1-28.26,19.85,23.8,23.8,0,0,1-11.24-5.47,27.73,27.73,0,0,1-8.88-24.41A24,24,0,0,1,968.09,120,26.34,26.34,0,0,1,975.56,131.19Zm-7,2.56a20.37,20.37,0,0,0-5.32-8.21,16.34,16.34,0,0,0-23.88,1.83,16.33,16.33,0,0,0-3.47,8.12,20,20,0,0,0,1.13,9.74,19.57,19.57,0,0,0,5.28,8.11,17,17,0,0,0,7.91,4.07,16.52,16.52,0,0,0,16-5.84,17.2,17.2,0,0,0,3.4-8.18,19.91,19.91,0,0,0-1.09-9.64Z" transform="translate(60.93 180.96)" style="fill:#ff9aa2"/><path d="M993.27,150.62a3.46,3.46,0,0,1-2.9-.14,3.85,3.85,0,0,1-1.89-2.15l-21.1-58a3.69,3.69,0,0,1,.07-2.86,3.5,3.5,0,0,1,2.15-1.92,3.65,3.65,0,0,1,4.79,2.23l21.08,57.93a3.69,3.69,0,0,1-.09,2.88,3.54,3.54,0,0,1-2.11,2Zm12.54-56.32a3.45,3.45,0,0,1,2.91.19,3.65,3.65,0,0,1,1.82,1.87,3.56,3.56,0,0,1-.44,3.15l-19.43,35.22-3.25-8.06,16.39-30.44a3.58,3.58,0,0,1,2-1.93Zm17.58,45.25a3.9,3.9,0,0,1-3-.17l-26-13.12,3.51-6.77,25.79,13.11a4,4,0,0,1,2,2.13,3.21,3.21,0,0,1-.31,3,4.2,4.2,0,0,1-1.88,2Z" transform="translate(60.93 180.96)" style="fill:#ff9aa2"/><path d="M1016.44,83.27a5.38,5.38,0,0,1-3.58.31,3.6,3.6,0,0,1-2.06-2.36l-.43-1.2a3.4,3.4,0,0,1,.15-3.16,5.63,5.63,0,0,1,2.92-2.06,5.43,5.43,0,0,1,3.49-.27,3.59,3.59,0,0,1,2.05,2.35l.44,1.21a3.45,3.45,0,0,1-.11,3.14,5.39,5.39,0,0,1-2.87,2Zm21.14,47.16a3.85,3.85,0,0,1-.09,2.87,3.58,3.58,0,0,1-2.12,2,3.54,3.54,0,0,1-2.9-.14,3.93,3.93,0,0,1-1.87-2.16l-14.23-39.1a3.69,3.69,0,0,1,2.23-4.82,3.7,3.7,0,0,1,4.8,2.26Z" transform="translate(60.93 180.96)" style="fill:#ff9aa2"/><path d="M1049.36,77.46a33.94,33.94,0,0,1,8.43-2,16.94,16.94,0,0,1,6.61.44,5.14,5.14,0,0,1,3.49,3,3.91,3.91,0,0,1,0,2.46,2.7,2.7,0,0,1-1.75,1.83,3.67,3.67,0,0,1-2,.26,7,7,0,0,1-1.85-.64,6.15,6.15,0,0,0-2.23-.55,9.48,9.48,0,0,0-3.44.14,26.94,26.94,0,0,0-4.25,1.15,16.52,16.52,0,0,0-7.6,5.36,17,17,0,0,0-3.54,8.25,21.18,21.18,0,0,0,6.4,17.58,16.66,16.66,0,0,0,7.86,4.1,16,16,0,0,0,9.17-.75,19,19,0,0,0,4.68-2.3,16.85,16.85,0,0,0,2.69-2.37,11.64,11.64,0,0,0,1.67-2.6,3.39,3.39,0,0,1,2-1.73,3,3,0,0,1,2.63.12,4,4,0,0,1,1.72,2.22,5.08,5.08,0,0,1-1,4.15,19.89,19.89,0,0,1-4.84,5.14,28.07,28.07,0,0,1-7.93,4.28,23,23,0,0,1-12.84,1.15,22.72,22.72,0,0,1-10.89-5.7,28,28,0,0,1-7.16-11.08,26.58,26.58,0,0,1-1.51-13.07,23.05,23.05,0,0,1,15.47-18.88Z" transform="translate(60.93 180.96)" style="fill:#ff9aa2"/><path d="M1090.94,115.07a3.51,3.51,0,0,1-2.89-.14,3.83,3.83,0,0,1-1.87-2.16l-21.09-58a3.64,3.64,0,0,1,0-2.86,3.58,3.58,0,0,1,2.14-1.91,3.53,3.53,0,0,1,2.88.09,3.58,3.58,0,0,1,1.94,2.13l21.09,57.93a3.81,3.81,0,0,1-.12,2.89,3.45,3.45,0,0,1-2.12,2Zm12.55-56.32a3.38,3.38,0,0,1,2.91.19,3.3,3.3,0,0,1,1.92,2.17,3.26,3.26,0,0,1-.55,2.85l-19.42,35.22-3.22-8.07,16.38-30.45a3.59,3.59,0,0,1,2-1.9Zm17.59,45.35a3.81,3.81,0,0,1-3-.17l-26-13.12,3.5-6.77,25.77,13.12a3.91,3.91,0,0,1,2,2.12,3.15,3.15,0,0,1-.31,3,4.19,4.19,0,0,1-1.91,1.86Z" transform="translate(60.93 180.96)" style="fill:#ff9aa2"/><path d="M1114.07,47.73a5.27,5.27,0,0,1-3.56.3,3.55,3.55,0,0,1-2-2.35l-.44-1.2a3.44,3.44,0,0,1,.13-3.15,5.68,5.68,0,0,1,2.95-2.07,5.33,5.33,0,0,1,3.48-.27,3.57,3.57,0,0,1,2.05,2.35l.44,1.21a3.51,3.51,0,0,1-.11,3.14A5.3,5.3,0,0,1,1114.07,47.73Zm21.14,47.16a3.74,3.74,0,0,1-.09,2.88,3.56,3.56,0,0,1-2.12,2,3.46,3.46,0,0,1-2.9-.14,3.83,3.83,0,0,1-1.89-2.16L1114,58.35a3.69,3.69,0,0,1,.09-2.88,3.74,3.74,0,0,1,6.94.32Z" transform="translate(60.93 180.96)" style="fill:#ff9aa2"/></svg>