<?xml version="1.0" encoding="UTF-8"?>
<svg xmlns="http://www.w3.org/2000/svg" viewBox="0 0 35 35"><g style="isolation:isolate"><g style="isolation:isolate"><path d="M21.35,10.67H12.24V34H9.72V10.67H.61V8.44H21.35Z" transform="translate(-0.61 -8)" style="fill:inherit"/></g></g><g style="isolation:isolate"><g style="isolation:isolate"><path d="M15.61,42a1.24,1.24,0,0,1-.88-.32,1,1,0,0,1-.35-.76v-23a1.11,1.11,0,0,1,1.08-1.08h9.72a7.56,7.56,0,0,1,3.68.88,6.5,6.5,0,0,1,2.53,2.43,6.64,6.64,0,0,1,.92,3.49,7.35,7.35,0,0,1-.57,2.92,6.37,6.37,0,0,1-1.62,2.25,6.88,6.88,0,0,1-2.34,1.35l-1.26-.4a5.49,5.49,0,0,1,2.48.85,5.31,5.31,0,0,1,1.85,2,6.48,6.48,0,0,1,.74,3.07,24,24,0,0,0,.16,2.42,3.83,3.83,0,0,0,.38,1.29,2.05,2.05,0,0,0,.65.69,1.07,1.07,0,0,1,.49.61,1,1,0,0,1-.51,1.17,1.34,1.34,0,0,1-.56.12,1.2,1.2,0,0,1-.57-.14,3.92,3.92,0,0,1-1-.9,4.87,4.87,0,0,1-.86-1.8,12.46,12.46,0,0,1-.34-3.31A5.16,5.16,0,0,0,29,33.5a3.54,3.54,0,0,0-1.16-1.38,4.47,4.47,0,0,0-1.54-.69,7.19,7.19,0,0,0-1.61-.19H16.26l.39-.51V40.92a1.08,1.08,0,0,1-.29.76A1,1,0,0,1,15.61,42Zm.65-12.74h9a5.1,5.1,0,0,0,4.05-2.74A5.79,5.79,0,0,0,30,23.68a4.55,4.55,0,0,0-1.39-3.41A5,5,0,0,0,25,18.92H16.4l.25-.5V29.76Z" transform="translate(-0.61 -8)" style="fill:inherit"/></g></g><path d="M3.5,34h0a.5.5,0,0,1,.5.5v3a.5.5,0,0,1-.5.5h0a.5.5,0,0,1-.5-.5v-3A.5.5,0,0,1,3.5,34Z" transform="translate(-0.61 -8)" style="fill:inherit;fill-rule:evenodd"/><path d="M3.5,37h9a.5.5,0,0,1,.5.5h0a.5.5,0,0,1-.5.5h-9a.5.5,0,0,1-.5-.5H3A.5.5,0,0,1,3.5,37Z" transform="translate(-0.61 -8)" style="fill:inherit;fill-rule:evenodd"/><rect x="26.39" width="1" height="5" style="fill:inherit"/><rect x="30.39" width="1" height="5" style="fill:inherit"/><rect x="27.39" width="3" height="1" style="fill:inherit"/><rect x="27.39" y="4" width="3" height="1" style="fill:inherit"/></svg>