<?xml version="1.0" encoding="UTF-8"?>
<svg xmlns="http://www.w3.org/2000/svg" viewBox="0 0 105 35"><g style="isolation:isolate"><g style="isolation:isolate"><path d="M21.35,10.67H12.24V34H9.72V10.67H.61V8.44H21.35Z" transform="translate(-0.61 -8)" style="fill:inherit"/></g></g><g style="isolation:isolate"><g style="isolation:isolate"><path d="M15.61,42a1.24,1.24,0,0,1-.88-.32,1,1,0,0,1-.35-.76v-23a1.11,1.11,0,0,1,1.08-1.08h9.72a7.56,7.56,0,0,1,3.68.88,6.5,6.5,0,0,1,2.53,2.43,6.64,6.64,0,0,1,.92,3.49,7.35,7.35,0,0,1-.57,2.92,6.37,6.37,0,0,1-1.62,2.25,6.88,6.88,0,0,1-2.34,1.35l-1.26-.4a5.49,5.49,0,0,1,2.48.85,5.31,5.31,0,0,1,1.85,2,6.48,6.48,0,0,1,.74,3.07,24,24,0,0,0,.16,2.42,3.83,3.83,0,0,0,.38,1.29,2.05,2.05,0,0,0,.65.69,1.07,1.07,0,0,1,.49.61,1,1,0,0,1-.51,1.17,1.34,1.34,0,0,1-.56.12,1.2,1.2,0,0,1-.57-.14,3.92,3.92,0,0,1-1-.9,4.87,4.87,0,0,1-.86-1.8,12.46,12.46,0,0,1-.34-3.31A5.16,5.16,0,0,0,29,33.5a3.54,3.54,0,0,0-1.16-1.38,4.47,4.47,0,0,0-1.54-.69,7.19,7.19,0,0,0-1.61-.19H16.26l.39-.51V40.92a1.08,1.08,0,0,1-.29.76A1,1,0,0,1,15.61,42Zm.65-12.74h9a5.1,5.1,0,0,0,4.05-2.74A5.79,5.79,0,0,0,30,23.68a4.55,4.55,0,0,0-1.39-3.41A5,5,0,0,0,25,18.92H16.4l.25-.5V29.76Z" transform="translate(-0.61 -8)" style="fill:inherit"/></g></g><path d="M3.5,34h0a.5.5,0,0,1,.5.5v3a.5.5,0,0,1-.5.5h0a.5.5,0,0,1-.5-.5v-3A.5.5,0,0,1,3.5,34Z" transform="translate(-0.61 -8)" style="fill:inherit;fill-rule:evenodd"/><path d="M3.5,37h9a.5.5,0,0,1,.5.5h0a.5.5,0,0,1-.5.5h-9a.5.5,0,0,1-.5-.5H3A.5.5,0,0,1,3.5,37Z" transform="translate(-0.61 -8)" style="fill:inherit;fill-rule:evenodd"/><g style="isolation:isolate"><g style="isolation:isolate"><path d="M48.92,37.1a3.47,3.47,0,0,1-1.3-.22,3.62,3.62,0,0,1-1.08-.7,1.58,1.58,0,0,1-.12-.15.58.58,0,0,1,0-.19.42.42,0,0,1,.12-.29.36.36,0,0,1,.28-.12.36.36,0,0,1,.25.11,2.8,2.8,0,0,0,.85.58,2.54,2.54,0,0,0,1,.2,2.18,2.18,0,0,0,.79-.14,1.32,1.32,0,0,0,.57-.39.88.88,0,0,0,.21-.58,1,1,0,0,0-.24-.66,1.67,1.67,0,0,0-.61-.43,5,5,0,0,0-.92-.3,5,5,0,0,1-.85-.27,3,3,0,0,1-.66-.39,1.69,1.69,0,0,1-.44-.58,1.87,1.87,0,0,1-.15-.78,1.71,1.71,0,0,1,.3-1,2,2,0,0,1,.83-.67A3.09,3.09,0,0,1,49,29.9a3.35,3.35,0,0,1,1.15.2,2.21,2.21,0,0,1,.88.55.55.55,0,0,1,.2.37.37.37,0,0,1-.12.27.39.39,0,0,1-.29.13.32.32,0,0,1-.2-.08,1.66,1.66,0,0,0-.43-.34,2.44,2.44,0,0,0-.57-.24,2.39,2.39,0,0,0-1.43,0,1.28,1.28,0,0,0-.54.38,1,1,0,0,0,0,1.21,1.5,1.5,0,0,0,.59.4,5.62,5.62,0,0,0,.82.28,9,9,0,0,1,.91.27,3.19,3.19,0,0,1,.71.39,1.62,1.62,0,0,1,.47.59,2,2,0,0,1,.16.87,1.61,1.61,0,0,1-.31,1,2,2,0,0,1-.85.67A2.86,2.86,0,0,1,48.92,37.1Z" transform="translate(-0.61 -8)" style="fill:inherit"/><path d="M57.34,34.4A2.78,2.78,0,0,1,57,35.79a2.52,2.52,0,0,1-.93,1,2.66,2.66,0,0,1-2.64,0,2.52,2.52,0,0,1-.93-1,3,3,0,0,1,0-2.78,2.52,2.52,0,0,1,.93-1,2.66,2.66,0,0,1,2.64,0A2.52,2.52,0,0,1,57,33,2.78,2.78,0,0,1,57.34,34.4Zm-.8,0a2.08,2.08,0,0,0-.24-1,1.77,1.77,0,0,0-.64-.69,1.66,1.66,0,0,0-.91-.25,1.68,1.68,0,0,0-.91.25,1.88,1.88,0,0,0-.65.69,2.35,2.35,0,0,0,0,2,2,2,0,0,0,.65.7,1.68,1.68,0,0,0,.91.25,1.66,1.66,0,0,0,.91-.25,1.87,1.87,0,0,0,.64-.7A2.07,2.07,0,0,0,56.54,34.4Z" transform="translate(-0.61 -8)" style="fill:inherit"/><path d="M61,31.75a1.74,1.74,0,0,1,1.1.34,1.67,1.67,0,0,1,.57,1h-.15l.07-.18a1.55,1.55,0,0,1,.41-.54,2.56,2.56,0,0,1,.67-.43,2,2,0,0,1,.79-.17,1.63,1.63,0,0,1,1,.29,1.54,1.54,0,0,1,.54.75,3.29,3.29,0,0,1,.17,1.07v2.73a.4.4,0,0,1-.12.29.36.36,0,0,1-.28.12.37.37,0,0,1-.29-.12.44.44,0,0,1-.11-.29V33.88a2,2,0,0,0-.12-.71,1,1,0,0,0-.37-.5,1.18,1.18,0,0,0-.69-.18,1.6,1.6,0,0,0-.75.18,1.45,1.45,0,0,0-.54.5,1.33,1.33,0,0,0-.2.71v2.71a.44.44,0,0,1-.11.29.37.37,0,0,1-.29.12.36.36,0,0,1-.28-.12.4.4,0,0,1-.12-.29V33.85a1.83,1.83,0,0,0-.11-.68,1,1,0,0,0-.35-.5,1.18,1.18,0,0,0-.69-.18,1.45,1.45,0,0,0-1.26.68,1.23,1.23,0,0,0-.2.68v2.74a.4.4,0,0,1-.12.29.39.39,0,0,1-.56,0,.4.4,0,0,1-.12-.29V32.23a.41.41,0,0,1,.4-.4.37.37,0,0,1,.29.12.39.39,0,0,1,.11.28V33l-.22.24a1.27,1.27,0,0,1,.21-.52,2.07,2.07,0,0,1,.42-.48,2.14,2.14,0,0,1,.58-.35A1.72,1.72,0,0,1,61,31.75Z" transform="translate(-0.61 -8)" style="fill:inherit"/><path d="M70,37.1a2.77,2.77,0,0,1-1.4-.34,2.44,2.44,0,0,1-.93-.93,2.82,2.82,0,0,1-.33-1.38A3.15,3.15,0,0,1,67.68,33a2.37,2.37,0,0,1,.9-.93,2.25,2.25,0,0,1,1.17-.33,2.43,2.43,0,0,1,.89.17,2.14,2.14,0,0,1,.76.5,2.23,2.23,0,0,1,.54.77,2.81,2.81,0,0,1,.21,1,.39.39,0,0,1-.13.27.41.41,0,0,1-.28.11H67.79l-.18-.69h3.85L71.3,34v-.22a1.27,1.27,0,0,0-.26-.7,1.62,1.62,0,0,0-.58-.46,1.6,1.6,0,0,0-.71-.16,2.09,2.09,0,0,0-.6.1,1.6,1.6,0,0,0-.53.34,1.75,1.75,0,0,0-.37.61,2.6,2.6,0,0,0-.14.89,2.19,2.19,0,0,0,.23,1,1.93,1.93,0,0,0,.66.7,1.82,1.82,0,0,0,1,.25A1.73,1.73,0,0,0,71,36a2.07,2.07,0,0,0,.31-.27.45.45,0,0,1,.26-.09A.34.34,0,0,1,72,36a.38.38,0,0,1-.16.3,2.58,2.58,0,0,1-.77.55A2.31,2.31,0,0,1,70,37.1Z" transform="translate(-0.61 -8)" style="fill:inherit"/><path d="M73.1,31.86h2.35a.35.35,0,0,1,.26.11.33.33,0,0,1,.11.26.35.35,0,0,1-.11.27.34.34,0,0,1-.26.1H73.1a.36.36,0,0,1-.26-.11.37.37,0,0,1-.11-.27.38.38,0,0,1,.11-.26A.35.35,0,0,1,73.1,31.86Zm1.05-1.36a.36.36,0,0,1,.28.12.39.39,0,0,1,.11.28v4.83a.7.7,0,0,0,.07.36.39.39,0,0,0,.18.16.5.5,0,0,0,.23,0,.31.31,0,0,0,.17,0,.48.48,0,0,1,.18,0,.21.21,0,0,1,.18.1.32.32,0,0,1,.09.24.37.37,0,0,1-.21.31A.94.94,0,0,1,75,37l-.34,0a1,1,0,0,1-.41-.13.78.78,0,0,1-.33-.36,1.56,1.56,0,0,1-.14-.72V30.9a.36.36,0,0,1,.12-.28A.4.4,0,0,1,74.15,30.5Z" transform="translate(-0.61 -8)" style="fill:inherit"/><path d="M79.43,31.75a1.63,1.63,0,0,1,1,.29,1.49,1.49,0,0,1,.55.75,3.23,3.23,0,0,1,.17,1.06v2.74a.4.4,0,0,1-.12.29.36.36,0,0,1-.28.12.4.4,0,0,1-.29-.12.44.44,0,0,1-.11-.29V33.85a2.06,2.06,0,0,0-.11-.68,1,1,0,0,0-.37-.5,1.18,1.18,0,0,0-.69-.18,1.6,1.6,0,0,0-.75.18,1.45,1.45,0,0,0-.54.5,1.23,1.23,0,0,0-.2.68v2.74a.4.4,0,0,1-.12.29.36.36,0,0,1-.28.12.4.4,0,0,1-.29-.12.44.44,0,0,1-.11-.29V30a.38.38,0,0,1,.4-.4.4.4,0,0,1,.29.11.44.44,0,0,1,.11.29v3l-.2.22a1.58,1.58,0,0,1,.22-.53,2.11,2.11,0,0,1,.43-.47,2.08,2.08,0,0,1,.58-.33A1.7,1.7,0,0,1,79.43,31.75Z" transform="translate(-0.61 -8)" style="fill:inherit"/><path d="M83,31.08a.55.55,0,0,1-.37-.1.39.39,0,0,1-.12-.31v-.14a.36.36,0,0,1,.13-.31.58.58,0,0,1,.37-.1.53.53,0,0,1,.36.1.39.39,0,0,1,.12.31v.14a.36.36,0,0,1-.13.31A.53.53,0,0,1,83,31.08Zm.4,5.51a.4.4,0,0,1-.12.29A.36.36,0,0,1,83,37a.37.37,0,0,1-.29-.12.44.44,0,0,1-.11-.29V32.15a.39.39,0,0,1,.11-.28.4.4,0,0,1,.29-.12.41.41,0,0,1,.4.4Z" transform="translate(-0.61 -8)" style="fill:inherit"/><path d="M87.45,31.7a1.79,1.79,0,0,1,1.07.28,1.54,1.54,0,0,1,.55.75,3.12,3.12,0,0,1,.17,1.05v2.81a.4.4,0,0,1-.12.29.36.36,0,0,1-.28.12.4.4,0,0,1-.29-.12.44.44,0,0,1-.11-.29V33.8a1.83,1.83,0,0,0-.12-.68,1,1,0,0,0-.38-.5,1.24,1.24,0,0,0-.72-.18,1.65,1.65,0,0,0-.77.18,1.59,1.59,0,0,0-.56.5,1.16,1.16,0,0,0-.21.68v2.79a.4.4,0,0,1-.12.29.36.36,0,0,1-.28.12.4.4,0,0,1-.29-.12.44.44,0,0,1-.11-.29V32.23A.39.39,0,0,1,85,32a.4.4,0,0,1,.29-.12.37.37,0,0,1,.29.12.39.39,0,0,1,.11.28v.71l-.2.22a1.43,1.43,0,0,1,.23-.53,2.21,2.21,0,0,1,.45-.47,2.19,2.19,0,0,1,.6-.33A1.8,1.8,0,0,1,87.45,31.7Z" transform="translate(-0.61 -8)" style="fill:inherit"/><path d="M92.84,31.7a2.16,2.16,0,0,1,1.45.52,1.73,1.73,0,0,1,.43.48.85.85,0,0,1,.16.47l-.2-.12v-.87a.38.38,0,0,1,.4-.4.4.4,0,0,1,.29.11.44.44,0,0,1,.11.29v4.38a2.47,2.47,0,0,1-.35,1.36,2.12,2.12,0,0,1-.92.81,3,3,0,0,1-1.29.27,3.66,3.66,0,0,1-1.31-.28.68.68,0,0,1-.35-.23.45.45,0,0,1-.19-.23.27.27,0,0,1,0-.23.31.31,0,0,1,.24-.14,1,1,0,0,1,.36.09l.29.1a3.35,3.35,0,0,0,.44.13,2.81,2.81,0,0,0,.49,0,1.79,1.79,0,0,0,1.3-.44,1.59,1.59,0,0,0,.45-1.18v-.93l.11,0a1.3,1.3,0,0,1-.24.52,2.06,2.06,0,0,1-.45.43,2.49,2.49,0,0,1-.59.29,2.05,2.05,0,0,1-.65.1,2.34,2.34,0,0,1-1.26-.35,2.48,2.48,0,0,1-.88-1,3.2,3.2,0,0,1,0-2.79,2.55,2.55,0,0,1,.88-1A2.38,2.38,0,0,1,92.84,31.7Zm.11.74a1.68,1.68,0,0,0-.92.26,1.75,1.75,0,0,0-.63.69,2.18,2.18,0,0,0-.23,1,2.13,2.13,0,0,0,.23,1,1.74,1.74,0,0,0,.63.71,1.79,1.79,0,0,0,1.84,0,1.85,1.85,0,0,0,.63-.7,2.35,2.35,0,0,0,0-2,1.75,1.75,0,0,0-.63-.69A1.67,1.67,0,0,0,93,32.44Z" transform="translate(-0.61 -8)" style="fill:inherit"/></g></g><g style="isolation:isolate"><g style="isolation:isolate"><path d="M48.49,14.06h.72l-2,9.3h5.62l-.14.64H46.38Z" transform="translate(-0.61 -8)" style="fill:inherit"/><path d="M55.9,24.14a2.63,2.63,0,0,1-2-.91,2.84,2.84,0,0,1-.54-1,3.85,3.85,0,0,1-.18-1.19,4.35,4.35,0,0,1,.33-1.66A4.5,4.5,0,0,1,54.39,18a4.61,4.61,0,0,1,1.38-1,3.9,3.9,0,0,1,1.71-.38,3,3,0,0,1,.84.13,2.23,2.23,0,0,1,.72.37,1.79,1.79,0,0,1,.69,1.45c0,1.4-1.27,2.1-3.8,2.1H55l-1.1-.06c0,.07,0,.15,0,.24s0,.16,0,.24A3.52,3.52,0,0,0,54,22a2.41,2.41,0,0,0,.4.8,2.08,2.08,0,0,0,.69.55,2.19,2.19,0,0,0,1,.2,2.68,2.68,0,0,0,.72-.11,2.72,2.72,0,0,0,.71-.29,3.43,3.43,0,0,0,.62-.46,2.81,2.81,0,0,0,.48-.61l.59.18a3.7,3.7,0,0,1-.61.76,4.39,4.39,0,0,1-.78.58,4.27,4.27,0,0,1-.91.38A3.47,3.47,0,0,1,55.9,24.14Zm1.5-7a3,3,0,0,0-1.21.24,3.69,3.69,0,0,0-1,.65,3.83,3.83,0,0,0-.74.91A4.59,4.59,0,0,0,54,20c.4,0,.75,0,1.06.05l.92,0A7.53,7.53,0,0,0,57.43,20a3.15,3.15,0,0,0,1-.33,1.43,1.43,0,0,0,.53-.5,1.34,1.34,0,0,0,.16-.63,1.17,1.17,0,0,0-.15-.61,1.22,1.22,0,0,0-.38-.43,1.48,1.48,0,0,0-.54-.24A2.13,2.13,0,0,0,57.4,17.17Z" transform="translate(-0.61 -8)" style="fill:inherit"/><path d="M61.41,24.08a1.28,1.28,0,0,1-.81-.25.89.89,0,0,1-.32-.74.76.76,0,0,1,0-.15,1,1,0,0,1,0-.16l1.17-5.49h-1l.13-.57h1l.52-2.49h.7l-.52,2.49h1.61l-.13.57H62.18l-1,4.93a4.26,4.26,0,0,0-.09.56.54.54,0,0,0,.2.48.76.76,0,0,0,.5.17,2.51,2.51,0,0,0,.74-.15l.26-.11.14-.08.09.56-.2.11-.36.15c-.14.05-.3.09-.46.13A3.12,3.12,0,0,1,61.41,24.08Z" transform="translate(-0.61 -8)" style="fill:inherit"/><path d="M65.05,16.44l.49-1.39h-.25l.27-1.27h.73L66,15.05l-.58,1.39Z" transform="translate(-0.61 -8)" style="fill:inherit"/><path d="M67.62,24.14a3.75,3.75,0,0,1-1.48-.28A2.64,2.64,0,0,1,65,23l.43-.48a3.14,3.14,0,0,0,1,.79,2.92,2.92,0,0,0,1.26.25,3.12,3.12,0,0,0,.93-.13,2.41,2.41,0,0,0,.74-.35,1.58,1.58,0,0,0,.49-.54,1.49,1.49,0,0,0,.18-.73.83.83,0,0,0-.49-.78,6.7,6.7,0,0,0-1.4-.49c-.33-.09-.62-.17-.86-.26a3.17,3.17,0,0,1-.61-.28,1.24,1.24,0,0,1-.37-.39,1.13,1.13,0,0,1-.12-.54A2.24,2.24,0,0,1,66.47,18a2.4,2.4,0,0,1,.67-.78,3,3,0,0,1,1-.48,4.45,4.45,0,0,1,1.16-.16,3.06,3.06,0,0,1,1.38.29,1.76,1.76,0,0,1,.8.74L71,18a1.47,1.47,0,0,0-.75-.63,3,3,0,0,0-1.14-.21,3.26,3.26,0,0,0-.83.11,2.19,2.19,0,0,0-.69.32,1.69,1.69,0,0,0-.48.55,1.59,1.59,0,0,0-.18.77.79.79,0,0,0,.09.4.87.87,0,0,0,.29.28,2.16,2.16,0,0,0,.48.21c.2.06.43.13.69.19l1,.28a3.32,3.32,0,0,1,.73.33,1.52,1.52,0,0,1,.46.45,1.21,1.21,0,0,1,.15.62,2.08,2.08,0,0,1-.24,1,2.39,2.39,0,0,1-.66.79,3,3,0,0,1-1,.51A4.22,4.22,0,0,1,67.62,24.14Z" transform="translate(-0.61 -8)" style="fill:inherit"/><path d="M76.76,14.06h4.42a1.47,1.47,0,0,1,.74.18,1.5,1.5,0,0,1,.52.45,2,2,0,0,1,.32.64,2.78,2.78,0,0,1,.1.76,2.94,2.94,0,0,1-.14.88,2.61,2.61,0,0,1-.4.8,3.44,3.44,0,0,1-.61.66,3.18,3.18,0,0,1-.77.47,1.71,1.71,0,0,1,1,.77,2.42,2.42,0,0,1,.33,1.26A2.78,2.78,0,0,1,82,22.14a3.15,3.15,0,0,1-.72,1,3.2,3.2,0,0,1-1,.65,3,3,0,0,1-1.16.24H74.64Zm2.45,9.3a1.8,1.8,0,0,0,.84-.21,2.9,2.9,0,0,0,.75-.55,2.55,2.55,0,0,0,.52-.77,2.17,2.17,0,0,0,.11-1.53,1.61,1.61,0,0,0-.27-.52,1.27,1.27,0,0,0-1-.5h-3.8l-.87,4.08Zm.71-4.68a1.85,1.85,0,0,0,.83-.2,2.52,2.52,0,0,0,.71-.54,2.59,2.59,0,0,0,.49-.77,2.33,2.33,0,0,0,.18-.9,1.83,1.83,0,0,0-.33-1.11,1.13,1.13,0,0,0-1-.46H77.33l-.84,4Z" transform="translate(-0.61 -8)" style="fill:inherit"/><path d="M85,24.14c-1.13,0-1.7-.63-1.7-1.9,0-.19,0-.39,0-.61a5,5,0,0,1,.12-.71l.91-4.2H85l-.86,4.1A5.36,5.36,0,0,0,84,22c0,1,.44,1.5,1.3,1.5a2.58,2.58,0,0,0,.89-.16A4.17,4.17,0,0,0,87,22.9a4.49,4.49,0,0,0,.77-.69,4,4,0,0,0,.62-.9l1-4.59h.7L88.8,22.81a2.09,2.09,0,0,0,0,.21.4.4,0,0,0,0,.13c0,.14.08.22.24.22l-.14.63h-.31a.45.45,0,0,1-.35-.14.58.58,0,0,1-.11-.35v-.09a1.52,1.52,0,0,0,0-.19c0-.08,0-.2.07-.35s.08-.36.13-.61a4.73,4.73,0,0,1-1.53,1.37A3.68,3.68,0,0,1,85,24.14Z" transform="translate(-0.61 -8)" style="fill:inherit"/><path d="M91.77,16.72h.7L90.93,24h-.7Zm.63-2.94h.7l-.27,1.29h-.7Z" transform="translate(-0.61 -8)" style="fill:inherit"/><path d="M93.82,24.08a1,1,0,0,1-.74-.25.94.94,0,0,1-.26-.71,1.56,1.56,0,0,1,0-.35l1.9-9h.7L93.6,22.56a.6.6,0,0,0,0,.12.53.53,0,0,0,0,.13.59.59,0,0,0,.18.46.7.7,0,0,0,.51.17l.36,0A2.22,2.22,0,0,0,95,23.3v.56a2.49,2.49,0,0,1-.59.16A3.77,3.77,0,0,1,93.82,24.08Z" transform="translate(-0.61 -8)" style="fill:inherit"/><path d="M98.29,24.14a2.39,2.39,0,0,1-1.11-.25,2.55,2.55,0,0,1-.82-.67,2.78,2.78,0,0,1-.51-1,3.77,3.77,0,0,1-.18-1.17A4.1,4.1,0,0,1,96,19.42a4.86,4.86,0,0,1,.9-1.44,4.52,4.52,0,0,1,1.3-1,3.34,3.34,0,0,1,1.54-.38,2.33,2.33,0,0,1,.81.14,2.59,2.59,0,0,1,.67.38,2.28,2.28,0,0,1,.5.53,3,3,0,0,1,.34.66l1-4.52h.72l-2,9.21a1.19,1.19,0,0,0,0,.17q0,.21.24.21l-.14.63h-.31a.47.47,0,0,1-.48-.5.28.28,0,0,1,0-.09s0-.09,0-.16l0-.27q0-.16.09-.45a4.38,4.38,0,0,1-1.37,1.17A3.26,3.26,0,0,1,98.29,24.14Zm.27-.63a2.53,2.53,0,0,0,.79-.15,4.17,4.17,0,0,0,.84-.43,4.42,4.42,0,0,0,.74-.62,1.94,1.94,0,0,0,.45-.76l.51-2.39a2,2,0,0,0-.26-.75,2.29,2.29,0,0,0-.48-.62,2.26,2.26,0,0,0-.64-.41,1.89,1.89,0,0,0-.74-.16,2.74,2.74,0,0,0-1.3.34,3.94,3.94,0,0,0-1.08.87,4.36,4.36,0,0,0-.72,1.21A3.46,3.46,0,0,0,96.4,21a3.14,3.14,0,0,0,.15,1,2.63,2.63,0,0,0,.44.81,2,2,0,0,0,.68.56A2,2,0,0,0,98.56,23.51Z" transform="translate(-0.61 -8)" style="fill:inherit"/></g></g><rect x="26.39" width="1" height="5" style="fill:inherit"/><rect x="30.39" width="1" height="5" style="fill:inherit"/><rect x="27.39" width="3" height="1" style="fill:inherit"/><rect x="27.39" y="4" width="3" height="1" style="fill:inherit"/></svg>