<svg  fill="#ffffff" xmlns:dc="http://purl.org/dc/elements/1.1/" xmlns:cc="http://creativecommons.org/ns#" xmlns:rdf="http://www.w3.org/1999/02/22-rdf-syntax-ns#" xmlns:svg="http://www.w3.org/2000/svg" xmlns="http://www.w3.org/2000/svg" xmlns:sodipodi="http://sodipodi.sourceforge.net/DTD/sodipodi-0.dtd" xmlns:inkscape="http://www.inkscape.org/namespaces/inkscape" version="1.1" x="0px" y="0px" viewBox="0 0 100 100"><g transform="translate(0,-952.36218)"><path style="text-indent:0;text-transform:none;direction:ltr;block-progression:tb;baseline-shift:baseline;color:#000000;enable-background:accumulate;" d="m 33.77924,969.41566 c -5.12576,0 -10.239919,2.01515 -14.0625,6.09375 -7.645235,8.15696 -7.634344,21.11991 0,29.28129 l 27.34375,29.25 a 4.0004,4.0004 0 0 0 5.84375,0 c 9.127281,-9.7385 18.247672,-19.4799 27.375,-29.2188 7.64521,-8.15694 7.64509,-21.124 0,-29.28124 -7.645116,-8.15728 -20.511042,-8.15744 -28.15625,0 l -2.125,2.25 -2.125,-2.28125 c -3.822613,-4.07859 -8.96799,-6.09375 -14.09375,-6.09375 z m 0,7.8125 c 2.939713,0 5.892363,1.23449 8.25,3.75 l 5.0625,5.4375 a 4.0004,4.0004 0 0 0 5.84375,0 l 5.03125,-5.40625 c 4.715272,-5.0312 11.753546,-5.03108 16.46875,0 4.715226,5.0311 4.715106,13.31304 0,18.34376 -8.149547,8.69563 -16.287882,17.39843 -24.4375,26.09373 l -24.4375,-26.12503 c -4.714056,-5.03942 -4.715085,-13.31303 0,-18.34371 2.357599,-2.5155 5.279037,-3.75 8.21875,-3.75 z" stroke="none" marker="none" visibility="visible" display="inline" overflow="visible"></path></g></svg>