<svg fill="#ffffff" xmlns="http://www.w3.org/2000/svg" xmlns:xlink="http://www.w3.org/1999/xlink" style="isolation:isolate;" viewBox="0 0 32 32" x="0px" y="0px"><path d=" M 75.863 0.001 C 73.406 0.027 70.888 0.531 68.445 1.458 C 61.113 4.239 53.915 10.456 47.086 20.474 C 43.864 14.455 39.374 10.498 34.13 8.862 C 25.75 6.248 17.072 9.963 11.8 16.588 C 6.527 23.21 4.349 33.106 7.921 43.309 C 11.491 53.513 20.486 63.739 36.554 72.552 C 37.924 73.32 39.543 73.51 41.054 73.077 C 42.564 72.645 43.838 71.626 44.592 70.25 C 45.348 68.873 45.521 67.25 45.074 65.745 C 44.627 64.239 43.597 62.975 42.212 62.234 C 27.883 54.376 21.36 46.092 19.026 39.423 C 16.691 32.754 18.22 27.413 21.004 23.915 C 23.79 20.417 27.518 19.124 30.628 20.094 C 33.737 21.065 37.857 24.698 39.82 35.53 C 40.27 38.005 42.243 39.92 44.728 40.296 C 47.214 40.675 49.665 39.429 50.828 37.199 C 58.765 21.959 67.273 14.487 72.618 12.46 C 75.29 11.447 76.938 11.637 78.085 12.154 C 79.23 12.67 80.295 13.674 81.126 16.04 C 82.787 20.774 82.325 30.754 75.905 43.705 C 69.486 56.658 57.389 72.56 37.351 89.594 C 36.144 90.599 35.389 92.045 35.254 93.61 C 35.12 95.176 35.616 96.73 36.634 97.927 C 37.651 99.124 39.104 99.864 40.671 99.983 C 42.238 100.102 43.787 99.59 44.974 98.559 C 65.977 80.703 79.127 63.704 86.449 48.931 C 93.77 34.16 95.545 21.593 92.228 12.143 C 90.569 7.419 87.342 3.422 82.927 1.429 C 80.718 0.432 78.32 -0.023 75.863 0.001 L 75.863 0.001 Z " ></path></svg>